<?xml version="1.0" encoding="UTF-8"?>
<svg id="Layer_1" xmlns="http://www.w3.org/2000/svg" version="1.1" viewBox="0 0 20 20">
  <!-- Generator: Adobe Illustrator 29.2.1, SVG Export Plug-In . SVG Version: 2.1.0 Build 116)  -->
  <path d="M20,11.6l-3.5-1.7,2.2-3.3-3.9.2.2-3.9-3.3,2.2-1.7-3.5-1.7,3.5-3.3-2.2.2,3.9-3.9-.2,2.2,3.3L0,11.6l2.9,1.5c-.3.3-.6.5-.9.8l-.5.5s3,3.9,8.6,3.9,8.6-3.9,8.6-3.9l-.5-.5c-.3-.3-.6-.6-.9-.8l2.9-1.5ZM10,16.8c-2.3,0-4.6-.8-6.3-2.3.8-.7,1.7-1.2,2.7-1.6.5,1.5,2,2.6,3.7,2.6s3.1-1.1,3.7-2.6c1,.4,1.9.9,2.7,1.6-1.8,1.5-4,2.3-6.3,2.3ZM10,12.2c.7,0,1.5,0,2.2.2-.3.9-1.2,1.5-2.2,1.5s-1.9-.6-2.2-1.5c.7-.2,1.4-.2,2.2-.2ZM7.8,10.8c.3-.9,1.2-1.5,2.2-1.5s1.8.6,2.2,1.5c-.7-.1-1.4-.2-2.2-.2s-1.5,0-2.2.2ZM13.8,11.3c-.2-2-1.8-3.5-3.8-3.5s-3.7,1.5-3.8,3.5c-.7.3-1.4.6-2.1,1l-1.3-.7,2.5-1.3-1.6-2.4,2.8.2-.2-2.8,2.4,1.6,1.3-2.5,1.3,2.5,2.4-1.6-.2,2.8,2.8-.2-1.6,2.4,2.5,1.3-1.3.7c-.7-.4-1.4-.7-2.1-1Z"/>
</svg>